<svg width="412" height="263" viewBox="0 0 412 263" fill="none" xmlns="http://www.w3.org/2000/svg">
<path d="M206 57.3335C183.025 57.3335 164.333 72.2877 164.333 90.6668C164.333 102.783 172.237 113.65 185.166 119.559V140.667L207.416 123.984C229.737 123.384 247.666 108.667 247.666 90.6668C247.666 72.2877 228.975 57.3335 206 57.3335ZM195.583 94.8335C193.925 94.8335 192.336 94.175 191.164 93.0029C189.991 91.8308 189.333 90.2411 189.333 88.5835C189.333 86.9259 189.991 85.3362 191.164 84.1641C192.336 82.992 193.925 82.3335 195.583 82.3335C197.241 82.3335 198.83 82.992 200.002 84.1641C201.175 85.3362 201.833 86.9259 201.833 88.5835C201.833 90.2411 201.175 91.8308 200.002 93.0029C198.83 94.175 197.241 94.8335 195.583 94.8335ZM216.416 94.8335C214.759 94.8335 213.169 94.175 211.997 93.0029C210.825 91.8308 210.166 90.2411 210.166 88.5835C210.166 86.9259 210.825 85.3362 211.997 84.1641C213.169 82.992 214.759 82.3335 216.416 82.3335C218.074 82.3335 219.664 82.992 220.836 84.1641C222.008 85.3362 222.666 86.9259 222.666 88.5835C222.666 90.2411 222.008 91.8308 220.836 93.0029C219.664 94.175 218.074 94.8335 216.416 94.8335Z" fill="#F2EAEA"/>
<path d="M54.0338 170.015C54.0338 168.209 54.4618 166.758 55.3178 165.662C56.1738 164.56 57.2946 164.008 58.6802 164.008C60.0586 164.008 61.1504 164.48 61.9556 165.423V159.286H63.9687V176H62.1189L62.0209 174.738C61.2157 175.724 60.0949 176.218 58.6585 176.218C57.2946 176.218 56.1811 175.659 55.3178 174.542C54.4618 173.425 54.0338 171.967 54.0338 170.167V170.015ZM56.0469 170.244C56.0469 171.578 56.3225 172.623 56.8739 173.378C57.4252 174.132 58.1869 174.509 59.159 174.509C60.4358 174.509 61.368 173.936 61.9556 172.79V167.382C61.3535 166.272 60.4286 165.717 59.1808 165.717C58.1942 165.717 57.4252 166.098 56.8739 166.859C56.3225 167.621 56.0469 168.749 56.0469 170.244ZM71.9886 176.218C70.3926 176.218 69.094 175.695 68.0929 174.651C67.0918 173.599 66.5912 172.195 66.5912 170.439V170.069C66.5912 168.902 66.8125 167.86 67.255 166.946C67.7048 166.025 68.3287 165.307 69.1267 164.792C69.9319 164.27 70.8025 164.008 71.7383 164.008C73.269 164.008 74.4587 164.513 75.3075 165.521C76.1562 166.529 76.5806 167.973 76.5806 169.852V170.69H68.6044C68.6334 171.85 68.9707 172.79 69.6163 173.508C70.2693 174.219 71.0963 174.574 72.0974 174.574C72.8083 174.574 73.4104 174.429 73.9037 174.139C74.397 173.849 74.8287 173.465 75.1987 172.986L76.4283 173.943C75.4417 175.46 73.9618 176.218 71.9886 176.218ZM71.7383 165.662C70.9258 165.662 70.2439 165.96 69.6925 166.555C69.1412 167.142 68.8002 167.969 68.6696 169.036H74.5675V168.883C74.5095 167.86 74.2338 167.07 73.7405 166.511C73.2472 165.945 72.5798 165.662 71.7383 165.662ZM82.6526 173.269L85.5689 164.226H87.6256L83.4035 176H81.8691L77.6035 164.226H79.6602L82.6526 173.269ZM94.296 176.218C92.7001 176.218 91.4015 175.695 90.4004 174.651C89.3993 173.599 88.8987 172.195 88.8987 170.439V170.069C88.8987 168.902 89.12 167.86 89.5625 166.946C90.0123 166.025 90.6362 165.307 91.4342 164.792C92.2394 164.27 93.1099 164.008 94.0458 164.008C95.5765 164.008 96.7662 164.513 97.615 165.521C98.4637 166.529 98.8881 167.973 98.8881 169.852V170.69H90.9118C90.9408 171.85 91.2782 172.79 91.9238 173.508C92.5767 174.219 93.4037 174.574 94.4049 174.574C95.1158 174.574 95.7179 174.429 96.2112 174.139C96.7045 173.849 97.1362 173.465 97.5061 172.986L98.7358 173.943C97.7492 175.46 96.2693 176.218 94.296 176.218ZM94.0458 165.662C93.2333 165.662 92.5513 165.96 92 166.555C91.4487 167.142 91.1077 167.969 90.9771 169.036H96.875V168.883C96.817 167.86 96.5413 167.07 96.048 166.511C95.5547 165.945 94.8873 165.662 94.0458 165.662ZM103.415 176H101.402V159.286H103.415V176ZM106.114 170.004C106.114 168.851 106.338 167.813 106.788 166.892C107.245 165.971 107.876 165.26 108.682 164.759C109.494 164.259 110.419 164.008 111.456 164.008C113.06 164.008 114.355 164.563 115.341 165.673C116.335 166.783 116.832 168.259 116.832 170.102V170.244C116.832 171.39 116.611 172.42 116.168 173.334C115.733 174.241 115.105 174.948 114.286 175.456C113.473 175.964 112.537 176.218 111.478 176.218C109.882 176.218 108.587 175.663 107.593 174.553C106.607 173.443 106.114 171.974 106.114 170.146V170.004ZM108.138 170.244C108.138 171.549 108.439 172.598 109.041 173.388C109.65 174.179 110.463 174.574 111.478 174.574C112.501 174.574 113.314 174.176 113.916 173.378C114.518 172.572 114.819 171.448 114.819 170.004C114.819 168.713 114.511 167.668 113.894 166.87C113.285 166.065 112.472 165.662 111.456 165.662C110.463 165.662 109.661 166.058 109.052 166.848C108.442 167.639 108.138 168.771 108.138 170.244ZM129.302 170.244C129.302 172.035 128.893 173.479 128.073 174.574C127.253 175.67 126.143 176.218 124.743 176.218C123.314 176.218 122.189 175.764 121.37 174.857V180.527H119.357V164.226H121.196L121.294 165.532C122.113 164.516 123.252 164.008 124.71 164.008C126.125 164.008 127.242 164.542 128.062 165.608C128.889 166.674 129.302 168.158 129.302 170.059V170.244ZM127.289 170.015C127.289 168.688 127.006 167.639 126.441 166.87C125.875 166.101 125.098 165.717 124.112 165.717C122.893 165.717 121.979 166.257 121.37 167.338V172.964C121.972 174.038 122.893 174.574 124.134 174.574C125.098 174.574 125.864 174.194 126.43 173.432C127.003 172.663 127.289 171.524 127.289 170.015ZM136.756 176.218C135.16 176.218 133.862 175.695 132.861 174.651C131.86 173.599 131.359 172.195 131.359 170.439V170.069C131.359 168.902 131.58 167.86 132.023 166.946C132.473 166.025 133.097 165.307 133.895 164.792C134.7 164.27 135.57 164.008 136.506 164.008C138.037 164.008 139.227 164.513 140.075 165.521C140.924 166.529 141.348 167.973 141.348 169.852V170.69H133.372C133.401 171.85 133.739 172.79 134.384 173.508C135.037 174.219 135.864 174.574 136.865 174.574C137.576 174.574 138.178 174.429 138.672 174.139C139.165 173.849 139.597 173.465 139.967 172.986L141.196 173.943C140.21 175.46 138.73 176.218 136.756 176.218ZM136.506 165.662C135.694 165.662 135.012 165.96 134.46 166.555C133.909 167.142 133.568 167.969 133.437 169.036H139.335V168.883C139.277 167.86 139.002 167.07 138.508 166.511C138.015 165.945 137.348 165.662 136.506 165.662ZM149.379 166.032C149.074 165.982 148.744 165.956 148.389 165.956C147.069 165.956 146.173 166.518 145.701 167.643V176H143.688V164.226H145.647L145.679 165.586C146.34 164.534 147.275 164.008 148.487 164.008C148.879 164.008 149.176 164.059 149.379 164.161V166.032ZM149.934 174.944C149.934 174.596 150.036 174.306 150.239 174.074C150.449 173.842 150.761 173.726 151.175 173.726C151.588 173.726 151.9 173.842 152.11 174.074C152.328 174.306 152.437 174.596 152.437 174.944C152.437 175.278 152.328 175.557 152.11 175.782C151.9 176.007 151.588 176.12 151.175 176.12C150.761 176.12 150.449 176.007 150.239 175.782C150.036 175.557 149.934 175.278 149.934 174.944ZM159.619 173.051L162.361 164.226H164.516L159.782 177.817C159.049 179.776 157.885 180.755 156.289 180.755L155.908 180.723L155.157 180.581V178.949L155.701 178.992C156.383 178.992 156.913 178.855 157.29 178.579C157.675 178.303 157.99 177.799 158.237 177.066L158.683 175.869L154.483 164.226H156.681L159.619 173.051ZM173.417 176C173.301 175.768 173.206 175.354 173.134 174.759C172.198 175.732 171.081 176.218 169.782 176.218C168.622 176.218 167.668 175.891 166.92 175.238C166.181 174.578 165.811 173.744 165.811 172.735C165.811 171.509 166.275 170.559 167.203 169.884C168.139 169.203 169.452 168.862 171.143 168.862H173.101V167.937C173.101 167.233 172.891 166.674 172.47 166.261C172.049 165.84 171.429 165.63 170.609 165.63C169.891 165.63 169.289 165.811 168.803 166.174C168.317 166.537 168.074 166.975 168.074 167.491H166.05C166.05 166.903 166.257 166.337 166.67 165.793C167.091 165.242 167.657 164.806 168.368 164.487C169.086 164.168 169.873 164.008 170.729 164.008C172.086 164.008 173.148 164.349 173.917 165.031C174.686 165.706 175.085 166.638 175.114 167.828V173.247C175.114 174.328 175.252 175.188 175.528 175.826V176H173.417ZM170.076 174.466C170.707 174.466 171.306 174.302 171.872 173.976C172.437 173.65 172.847 173.225 173.101 172.703V170.287H171.523C169.057 170.287 167.824 171.009 167.824 172.453C167.824 173.084 168.034 173.577 168.455 173.932C168.876 174.288 169.416 174.466 170.076 174.466ZM180.164 164.226L180.218 165.532C181.081 164.516 182.246 164.008 183.711 164.008C185.358 164.008 186.479 164.64 187.073 165.902C187.465 165.336 187.973 164.879 188.597 164.531C189.228 164.182 189.972 164.008 190.828 164.008C193.41 164.008 194.723 165.376 194.767 168.111V176H192.754V168.23C192.754 167.389 192.561 166.761 192.177 166.348C191.792 165.927 191.147 165.717 190.24 165.717C189.493 165.717 188.872 165.942 188.379 166.391C187.886 166.834 187.599 167.432 187.52 168.187V176H185.496V168.285C185.496 166.573 184.658 165.717 182.982 165.717C181.662 165.717 180.758 166.279 180.272 167.403V176H178.259V164.226H180.164ZM207.759 170.244C207.759 172.035 207.35 173.479 206.53 174.574C205.71 175.67 204.6 176.218 203.2 176.218C201.771 176.218 200.646 175.764 199.827 174.857V180.527H197.814V164.226H199.653L199.751 165.532C200.57 164.516 201.709 164.008 203.167 164.008C204.582 164.008 205.699 164.542 206.519 165.608C207.346 166.674 207.759 168.158 207.759 170.059V170.244ZM205.746 170.015C205.746 168.688 205.463 167.639 204.898 166.87C204.332 166.101 203.556 165.717 202.569 165.717C201.35 165.717 200.436 166.257 199.827 167.338V172.964C200.429 174.038 201.35 174.574 202.591 174.574C203.556 174.574 204.321 174.194 204.887 173.432C205.46 172.663 205.746 171.524 205.746 170.015ZM212.515 176H210.502V164.226H212.515V176ZM210.338 161.103C210.338 160.777 210.436 160.501 210.632 160.276C210.835 160.051 211.133 159.939 211.525 159.939C211.916 159.939 212.214 160.051 212.417 160.276C212.62 160.501 212.722 160.777 212.722 161.103C212.722 161.429 212.62 161.701 212.417 161.919C212.214 162.137 211.916 162.246 211.525 162.246C211.133 162.246 210.835 162.137 210.632 161.919C210.436 161.701 210.338 161.429 210.338 161.103ZM220.633 176.218C219.037 176.218 217.738 175.695 216.737 174.651C215.736 173.599 215.235 172.195 215.235 170.439V170.069C215.235 168.902 215.456 167.86 215.899 166.946C216.349 166.025 216.973 165.307 217.771 164.792C218.576 164.27 219.446 164.008 220.382 164.008C221.913 164.008 223.103 164.513 223.951 165.521C224.8 166.529 225.225 167.973 225.225 169.852V170.69H217.248C217.277 171.85 217.615 172.79 218.26 173.508C218.913 174.219 219.74 174.574 220.741 174.574C221.452 174.574 222.054 174.429 222.548 174.139C223.041 173.849 223.473 173.465 223.843 172.986L225.072 173.943C224.086 175.46 222.606 176.218 220.633 176.218ZM220.382 165.662C219.57 165.662 218.888 165.96 218.336 166.555C217.785 167.142 217.444 167.969 217.314 169.036H223.211V168.883C223.153 167.86 222.878 167.07 222.384 166.511C221.891 165.945 221.224 165.662 220.382 165.662ZM233.255 166.032C232.951 165.982 232.621 165.956 232.265 165.956C230.945 165.956 230.049 166.518 229.577 167.643V176H227.564V164.226H229.523L229.556 165.586C230.216 164.534 231.151 164.008 232.363 164.008C232.755 164.008 233.052 164.059 233.255 164.161V166.032ZM252.505 170.537C252.418 172.293 251.983 173.679 251.199 174.694C250.416 175.71 249.367 176.218 248.054 176.218C246.698 176.218 245.827 175.608 245.443 174.39C245.051 175.006 244.601 175.467 244.093 175.771C243.593 176.069 243.074 176.218 242.537 176.218C241.507 176.218 240.727 175.797 240.198 174.955C239.668 174.114 239.472 172.949 239.61 171.462C239.719 170.265 239.991 169.199 240.426 168.263C240.869 167.32 241.435 166.58 242.124 166.043C242.82 165.506 243.549 165.238 244.311 165.238C244.899 165.238 245.425 165.318 245.889 165.477C246.353 165.63 246.876 165.934 247.456 166.391L246.89 172.42C246.752 174.096 247.217 174.934 248.283 174.934C249.103 174.934 249.766 174.527 250.274 173.715C250.782 172.902 251.058 171.843 251.101 170.537C251.239 167.715 250.713 165.564 249.523 164.085C248.341 162.605 246.538 161.865 244.115 161.865C242.657 161.865 241.362 162.227 240.23 162.953C239.099 163.671 238.206 164.712 237.554 166.076C236.901 167.44 236.534 169.014 236.455 170.799C236.367 172.598 236.585 174.161 237.107 175.489C237.63 176.809 238.424 177.817 239.491 178.514C240.564 179.217 241.859 179.569 243.375 179.569C244.028 179.569 244.681 179.489 245.334 179.33C245.994 179.17 246.542 178.963 246.977 178.71L247.38 179.961C246.93 180.244 246.331 180.476 245.584 180.657C244.844 180.839 244.093 180.929 243.332 180.929C241.518 180.929 239.958 180.52 238.653 179.7C237.347 178.887 236.367 177.712 235.715 176.174C235.069 174.643 234.79 172.852 234.877 170.799C234.964 168.804 235.41 167.012 236.215 165.423C237.02 163.827 238.112 162.597 239.491 161.734C240.869 160.864 242.425 160.428 244.159 160.428C245.965 160.428 247.514 160.835 248.805 161.647C250.097 162.46 251.058 163.631 251.689 165.162C252.32 166.693 252.592 168.484 252.505 170.537ZM241.34 171.462C241.239 172.492 241.333 173.283 241.623 173.835C241.921 174.386 242.389 174.662 243.027 174.662C243.462 174.662 243.879 174.477 244.278 174.107C244.685 173.737 245.018 173.207 245.28 172.518L245.29 172.42L245.791 166.946C245.385 166.736 244.949 166.631 244.485 166.631C243.636 166.631 242.933 167.063 242.374 167.926C241.823 168.789 241.478 169.968 241.34 171.462ZM254.66 170.015C254.66 168.18 255.084 166.722 255.933 165.641C256.782 164.552 257.906 164.008 259.306 164.008C260.742 164.008 261.863 164.516 262.669 165.532L262.766 164.226H264.605V175.717C264.605 177.241 264.152 178.441 263.245 179.319C262.346 180.197 261.134 180.636 259.611 180.636C258.762 180.636 257.931 180.454 257.119 180.092C256.306 179.729 255.686 179.232 255.258 178.601L256.303 177.393C257.166 178.459 258.222 178.992 259.469 178.992C260.449 178.992 261.21 178.717 261.754 178.165C262.306 177.614 262.581 176.838 262.581 175.837V174.825C261.776 175.753 260.677 176.218 259.284 176.218C257.906 176.218 256.789 175.663 255.933 174.553C255.084 173.443 254.66 171.93 254.66 170.015ZM256.684 170.244C256.684 171.571 256.956 172.616 257.5 173.378C258.044 174.132 258.806 174.509 259.785 174.509C261.054 174.509 261.987 173.932 262.581 172.779V167.403C261.965 166.279 261.04 165.717 259.807 165.717C258.827 165.717 258.062 166.098 257.511 166.859C256.959 167.621 256.684 168.749 256.684 170.244ZM269.546 164.226L269.6 165.532C270.463 164.516 271.628 164.008 273.093 164.008C274.74 164.008 275.861 164.64 276.456 165.902C276.847 165.336 277.355 164.879 277.979 164.531C278.61 164.182 279.354 164.008 280.21 164.008C282.792 164.008 284.105 165.376 284.149 168.111V176H282.136V168.23C282.136 167.389 281.944 166.761 281.559 166.348C281.175 165.927 280.529 165.717 279.622 165.717C278.875 165.717 278.255 165.942 277.761 166.391C277.268 166.834 276.982 167.432 276.902 168.187V176H274.878V168.285C274.878 166.573 274.04 165.717 272.364 165.717C271.044 165.717 270.141 166.279 269.655 167.403V176H267.641V164.226H269.546ZM294.465 176C294.349 175.768 294.254 175.354 294.182 174.759C293.246 175.732 292.129 176.218 290.83 176.218C289.67 176.218 288.716 175.891 287.968 175.238C287.229 174.578 286.859 173.744 286.859 172.735C286.859 171.509 287.323 170.559 288.251 169.884C289.187 169.203 290.5 168.862 292.191 168.862H294.149V167.937C294.149 167.233 293.939 166.674 293.518 166.261C293.097 165.84 292.477 165.63 291.657 165.63C290.939 165.63 290.337 165.811 289.851 166.174C289.365 166.537 289.122 166.975 289.122 167.491H287.098C287.098 166.903 287.305 166.337 287.718 165.793C288.139 165.242 288.705 164.806 289.416 164.487C290.134 164.168 290.921 164.008 291.777 164.008C293.134 164.008 294.196 164.349 294.965 165.031C295.734 165.706 296.133 166.638 296.162 167.828V173.247C296.162 174.328 296.3 175.188 296.576 175.826V176H294.465ZM291.124 174.466C291.755 174.466 292.354 174.302 292.92 173.976C293.485 173.65 293.895 173.225 294.149 172.703V170.287H292.571C290.105 170.287 288.872 171.009 288.872 172.453C288.872 173.084 289.082 173.577 289.503 173.932C289.924 174.288 290.464 174.466 291.124 174.466ZM301.505 176H299.492V164.226H301.505V176ZM299.329 161.103C299.329 160.777 299.427 160.501 299.623 160.276C299.826 160.051 300.123 159.939 300.515 159.939C300.907 159.939 301.204 160.051 301.407 160.276C301.61 160.501 301.712 160.777 301.712 161.103C301.712 161.429 301.61 161.701 301.407 161.919C301.204 162.137 300.907 162.246 300.515 162.246C300.123 162.246 299.826 162.137 299.623 161.919C299.427 161.701 299.329 161.429 299.329 161.103ZM306.924 176H304.911V159.286H306.924V176ZM310.2 174.944C310.2 174.596 310.301 174.306 310.504 174.074C310.715 173.842 311.027 173.726 311.44 173.726C311.854 173.726 312.166 173.842 312.376 174.074C312.594 174.306 312.703 174.596 312.703 174.944C312.703 175.278 312.594 175.557 312.376 175.782C312.166 176.007 311.854 176.12 311.44 176.12C311.027 176.12 310.715 176.007 310.504 175.782C310.301 175.557 310.2 175.278 310.2 174.944ZM320.755 174.574C321.473 174.574 322.101 174.357 322.638 173.922C323.174 173.486 323.472 172.942 323.53 172.289H325.434C325.398 172.964 325.166 173.606 324.738 174.215C324.31 174.825 323.737 175.311 323.018 175.674C322.307 176.036 321.553 176.218 320.755 176.218C319.152 176.218 317.875 175.684 316.925 174.618C315.982 173.544 315.51 172.079 315.51 170.222V169.884C315.51 168.738 315.72 167.719 316.141 166.827C316.562 165.934 317.164 165.242 317.948 164.748C318.738 164.255 319.67 164.008 320.744 164.008C322.064 164.008 323.16 164.404 324.03 165.194C324.908 165.985 325.376 167.012 325.434 168.274H323.53C323.472 167.512 323.182 166.888 322.659 166.402C322.144 165.909 321.506 165.662 320.744 165.662C319.721 165.662 318.927 166.032 318.361 166.772C317.802 167.505 317.523 168.568 317.523 169.961V170.342C317.523 171.698 317.802 172.743 318.361 173.475C318.92 174.208 319.718 174.574 320.755 174.574ZM327.164 170.004C327.164 168.851 327.389 167.813 327.839 166.892C328.296 165.971 328.927 165.26 329.732 164.759C330.545 164.259 331.47 164.008 332.507 164.008C334.11 164.008 335.405 164.563 336.392 165.673C337.386 166.783 337.883 168.259 337.883 170.102V170.244C337.883 171.39 337.662 172.42 337.219 173.334C336.784 174.241 336.156 174.948 335.336 175.456C334.524 175.964 333.588 176.218 332.529 176.218C330.933 176.218 329.638 175.663 328.644 174.553C327.658 173.443 327.164 171.974 327.164 170.146V170.004ZM329.188 170.244C329.188 171.549 329.489 172.598 330.092 173.388C330.701 174.179 331.513 174.574 332.529 174.574C333.552 174.574 334.364 174.176 334.967 173.378C335.569 172.572 335.87 171.448 335.87 170.004C335.87 168.713 335.561 167.668 334.945 166.87C334.335 166.065 333.523 165.662 332.507 165.662C331.513 165.662 330.712 166.058 330.102 166.848C329.493 167.639 329.188 168.771 329.188 170.244ZM342.301 164.226L342.355 165.532C343.218 164.516 344.383 164.008 345.848 164.008C347.495 164.008 348.616 164.64 349.211 165.902C349.602 165.336 350.11 164.879 350.734 164.531C351.365 164.182 352.109 164.008 352.965 164.008C355.547 164.008 356.86 165.376 356.904 168.111V176H354.891V168.23C354.891 167.389 354.699 166.761 354.314 166.348C353.93 165.927 353.284 165.717 352.377 165.717C351.63 165.717 351.01 165.942 350.516 166.391C350.023 166.834 349.737 167.432 349.657 168.187V176H347.633V168.285C347.633 166.573 346.795 165.717 345.119 165.717C343.799 165.717 342.896 166.279 342.41 167.403V176H340.396V164.226H342.301Z" fill="#F2EAEA"/>
</svg>
